<svg width="21" height="20" viewBox="0 0 21 20" fill="none" xmlns="http://www.w3.org/2000/svg">
<path d="M10.0008 5.92603L10.0008 10.0001M10.0008 10.0001L10.0008 13.3334L10.0008 14.0742L10.0008 10.0001ZM10.0008 10.0001H14.0749M10.0008 10.0001H5.92676" stroke="#970004" stroke-width="1.28852"/>
<mask id="path-2-inside-1_254_3952" fill="white">
<path d="M20.002 10C20.002 7.68645 19.1998 5.44447 17.7321 3.65607C16.2644 1.86767 14.222 0.643499 11.9529 0.192147C9.68376 -0.259205 7.32836 0.090186 5.28799 1.18079C3.24761 2.27139 1.64852 4.03572 0.763158 6.17316C-0.1222 8.31061 -0.239039 10.6889 0.43255 12.9028C1.10414 15.1168 2.5226 17.0294 4.44625 18.3147C6.3699 19.6 8.67971 20.1786 10.9821 19.9518C13.2845 19.7251 15.4371 18.707 17.073 17.0711L16.6436 16.6417C15.107 18.1782 13.0852 19.1345 10.9226 19.3475C8.76001 19.5605 6.59047 19.017 4.78364 17.8098C2.97681 16.6025 1.64448 14.806 1.01368 12.7266C0.382876 10.6471 0.492619 8.4132 1.32421 6.40556C2.1558 4.39792 3.65779 2.74073 5.57426 1.71636C7.49072 0.691989 9.70308 0.363816 11.8344 0.787758C13.9657 1.2117 15.8841 2.36153 17.2626 4.04132C18.6412 5.72112 19.3947 7.82694 19.3947 10H20.002Z"/>
</mask>
<path d="M20.002 10C20.002 7.68645 19.1998 5.44447 17.7321 3.65607C16.2644 1.86767 14.222 0.643499 11.9529 0.192147C9.68376 -0.259205 7.32836 0.090186 5.28799 1.18079C3.24761 2.27139 1.64852 4.03572 0.763158 6.17316C-0.1222 8.31061 -0.239039 10.6889 0.43255 12.9028C1.10414 15.1168 2.5226 17.0294 4.44625 18.3147C6.3699 19.6 8.67971 20.1786 10.9821 19.9518C13.2845 19.7251 15.4371 18.707 17.073 17.0711L16.6436 16.6417C15.107 18.1782 13.0852 19.1345 10.9226 19.3475C8.76001 19.5605 6.59047 19.017 4.78364 17.8098C2.97681 16.6025 1.64448 14.806 1.01368 12.7266C0.382876 10.6471 0.492619 8.4132 1.32421 6.40556C2.1558 4.39792 3.65779 2.74073 5.57426 1.71636C7.49072 0.691989 9.70308 0.363816 11.8344 0.787758C13.9657 1.2117 15.8841 2.36153 17.2626 4.04132C18.6412 5.72112 19.3947 7.82694 19.3947 10H20.002Z" stroke="#970004" stroke-width="2.57703" mask="url(#path-2-inside-1_254_3952)"/>
</svg>
