<svg width="23" height="23" viewBox="0 0 23 23" fill="none" xmlns="http://www.w3.org/2000/svg">
<path d="M11.4977 6.81543V11.5006M11.4977 11.5006V15.3339V16.1858V11.5006ZM11.4977 11.5006H16.1829M11.4977 11.5006H6.8125" stroke="#F50010" stroke-width="1.09524"/>
<mask id="path-2-inside-1_36_1256" fill="white">
<path d="M23 11.5C23 8.83941 22.0775 6.26114 20.3896 4.20448C18.7018 2.14782 16.353 0.740024 13.7435 0.220969C11.1341 -0.298085 8.42537 0.103714 6.07894 1.35791C3.73251 2.6121 1.89355 4.64108 0.875386 7.09914C-0.142777 9.5572 -0.277141 12.2923 0.495186 14.8383C1.26751 17.3843 2.89875 19.5838 5.11094 21.0619C7.32314 22.54 9.97942 23.2054 12.6272 22.9446C15.275 22.6838 17.7504 21.513 19.6317 19.6317L19.1379 19.1379C17.3708 20.905 15.0457 22.0047 12.5587 22.2496C10.0718 22.4946 7.57679 21.8696 5.49894 20.4812C3.42108 19.0928 1.88891 17.027 1.16349 14.6355C0.438061 12.2441 0.564266 9.67518 1.5206 7.36639C2.47693 5.05761 4.20422 3.15184 6.40815 1.97381C8.61208 0.795787 11.1563 0.418389 13.6073 0.905922C16.0583 1.39346 18.2644 2.71576 19.8498 4.64752C21.4351 6.57928 22.3016 9.00099 22.3016 11.5H23Z"/>
</mask>
<path d="M23 11.5C23 8.83941 22.0775 6.26114 20.3896 4.20448C18.7018 2.14782 16.353 0.740024 13.7435 0.220969C11.1341 -0.298085 8.42537 0.103714 6.07894 1.35791C3.73251 2.6121 1.89355 4.64108 0.875386 7.09914C-0.142777 9.5572 -0.277141 12.2923 0.495186 14.8383C1.26751 17.3843 2.89875 19.5838 5.11094 21.0619C7.32314 22.54 9.97942 23.2054 12.6272 22.9446C15.275 22.6838 17.7504 21.513 19.6317 19.6317L19.1379 19.1379C17.3708 20.905 15.0457 22.0047 12.5587 22.2496C10.0718 22.4946 7.57679 21.8696 5.49894 20.4812C3.42108 19.0928 1.88891 17.027 1.16349 14.6355C0.438061 12.2441 0.564266 9.67518 1.5206 7.36639C2.47693 5.05761 4.20422 3.15184 6.40815 1.97381C8.61208 0.795787 11.1563 0.418389 13.6073 0.905922C16.0583 1.39346 18.2644 2.71576 19.8498 4.64752C21.4351 6.57928 22.3016 9.00099 22.3016 11.5H23Z" stroke="#F50010" stroke-width="2.19048" mask="url(#path-2-inside-1_36_1256)"/>
</svg>
