<svg width="17" height="17" viewBox="0 0 17 17" fill="none" xmlns="http://www.w3.org/2000/svg">
<path d="M6.05025 6.05132L8.49893 8.5M8.49893 8.5L10.5024 10.5035L10.9476 10.9487L8.49893 8.5ZM8.49893 8.5L10.9476 6.05132M8.49893 8.5L6.05025 10.9487" stroke="#970004" stroke-width="1.09524"/>
<mask id="path-2-inside-1_210_3325" fill="white">
<path d="M17 8.5C17 6.53348 16.3181 4.6278 15.0706 3.10766C13.823 1.58752 12.087 0.546974 10.1583 0.163325C8.22953 -0.220324 6.22744 0.0766581 4.49313 1.00367C2.75881 1.93068 1.39958 3.43036 0.647024 5.24719C-0.10553 7.06402 -0.204843 9.08558 0.366007 10.9674C0.936857 12.8493 2.14255 14.475 3.77765 15.5675C5.41275 16.66 7.37609 17.1518 9.33314 16.9591C11.2902 16.7663 13.1199 15.9009 14.5104 14.5104L14.1454 14.1454C12.8393 15.4515 11.1208 16.2643 9.28255 16.4454C7.44435 16.6264 5.60024 16.1645 4.06443 15.1383C2.52863 14.1121 1.39615 12.5851 0.859968 10.8176C0.323784 9.05002 0.417066 7.15122 1.12392 5.44473C1.83077 3.73823 3.10746 2.32962 4.73646 1.45891C6.36545 0.58819 8.24596 0.309244 10.0576 0.669594C11.8692 1.02995 13.4998 2.0073 14.6716 3.43512C15.8434 4.86295 16.4838 6.6529 16.4838 8.5H17Z"/>
</mask>
<path d="M17 8.5C17 6.53348 16.3181 4.6278 15.0706 3.10766C13.823 1.58752 12.087 0.546974 10.1583 0.163325C8.22953 -0.220324 6.22744 0.0766581 4.49313 1.00367C2.75881 1.93068 1.39958 3.43036 0.647024 5.24719C-0.10553 7.06402 -0.204843 9.08558 0.366007 10.9674C0.936857 12.8493 2.14255 14.475 3.77765 15.5675C5.41275 16.66 7.37609 17.1518 9.33314 16.9591C11.2902 16.7663 13.1199 15.9009 14.5104 14.5104L14.1454 14.1454C12.8393 15.4515 11.1208 16.2643 9.28255 16.4454C7.44435 16.6264 5.60024 16.1645 4.06443 15.1383C2.52863 14.1121 1.39615 12.5851 0.859968 10.8176C0.323784 9.05002 0.417066 7.15122 1.12392 5.44473C1.83077 3.73823 3.10746 2.32962 4.73646 1.45891C6.36545 0.58819 8.24596 0.309244 10.0576 0.669594C11.8692 1.02995 13.4998 2.0073 14.6716 3.43512C15.8434 4.86295 16.4838 6.6529 16.4838 8.5H17Z" stroke="#970004" stroke-width="2.19048" mask="url(#path-2-inside-1_210_3325)"/>
</svg>
