<svg width="20" height="21" viewBox="0 0 20 21" fill="none" xmlns="http://www.w3.org/2000/svg">
<path d="M15.3375 9.55109C15.8879 14.658 18.0526 16.2019 18.0526 16.2019H1C1 16.2019 3.84211 14.1753 3.84211 7.08078C3.84211 5.46842 4.44084 3.92162 5.50663 2.78148C6.57337 1.64133 8.02 1 9.52632 1C9.84558 1 10.1629 1.0285 10.4737 1.08551" stroke="#F50010" stroke-linecap="round" stroke-linejoin="round"/>
<path d="M16.1585 6.70073C16.9123 6.70073 17.6352 6.40042 18.1682 5.86587C18.7012 5.33133 19.0006 4.60633 19.0006 3.85036C19.0006 3.0944 18.7012 2.3694 18.1682 1.83485C17.6352 1.30031 16.9123 1 16.1585 1C15.4047 1 14.6818 1.30031 14.1488 1.83485C13.6158 2.3694 13.3164 3.0944 13.3164 3.85036C13.3164 4.60633 13.6158 5.33133 14.1488 5.86587C14.6818 6.40042 15.4047 6.70073 16.1585 6.70073Z" fill="#AB0013" stroke="#AB0013" stroke-linecap="round" stroke-linejoin="round"/>
<path d="M11.1646 19.0527C10.9982 19.3409 10.7593 19.5802 10.4716 19.7465C10.1839 19.9129 9.85771 20.0004 9.52567 20.0004C9.19362 20.0004 8.8674 19.9129 8.57974 19.7465C8.29208 19.5802 8.05308 19.3409 7.88672 19.0527" stroke="#F50010" stroke-linecap="round" stroke-linejoin="round"/>
</svg>
