<svg width="20" height="20" viewBox="0 0 20 20" fill="none" xmlns="http://www.w3.org/2000/svg">
<path d="M14.498 4.99996C14.498 7.48522 12.4833 9.49993 9.99805 9.49993C7.51276 9.49993 5.49805 7.48522 5.49805 4.99996C5.49805 2.51471 7.51276 0.5 9.99805 0.5C12.4833 0.5 14.498 2.51471 14.498 4.99996Z" stroke="#F50010"/>
<path d="M10 13C15.5227 13 20 14.276 20 16.7722V20.0005H0V16.7722C0 14.276 4.47733 13 10 13ZM19 16.7722C19 14.9901 14.7867 14 10 14C5.21333 14 1 14.9901 1 16.7722V19H10H19V16.7722Z" fill="#F50010"/>
<path d="M1 19H5V20H1V19Z" fill="#FFEFEF"/>
</svg>
