<svg width="12" height="14" viewBox="0 0 12 14" fill="none" xmlns="http://www.w3.org/2000/svg">
<path d="M11.3112 12.9318L8.45835 9.1459C9.39061 8.30039 9.961 7.12801 10.0509 5.87267C10.1407 4.61732 9.74319 3.37564 8.9409 2.40595C8.1386 1.43626 6.99335 0.813206 5.74338 0.666404C4.4934 0.519603 3.23496 0.860356 2.22982 1.61778C1.22469 2.3752 0.550264 3.49097 0.34684 4.73299C0.143416 5.975 0.426658 7.24763 1.13764 8.28612C1.84863 9.32462 2.93262 10.049 4.16411 10.3087C5.3956 10.5683 6.67978 10.3431 7.7495 9.68006L10.6024 13.4659L11.3112 12.9318ZM1.22382 4.97638C1.33378 4.19399 1.67327 3.46178 2.19937 2.87233C2.72547 2.28289 3.41455 1.86269 4.17946 1.66487C4.94437 1.46705 5.75077 1.50049 6.49667 1.76097C7.24258 2.02146 7.89449 2.49727 8.36997 3.12826C8.84545 3.75924 9.12315 4.51706 9.16794 5.30586C9.21273 6.09467 9.02261 6.87905 8.62161 7.5598C8.22062 8.24056 7.62676 8.78712 6.91514 9.13036C6.20352 9.47361 5.40609 9.59813 4.6237 9.48817C3.57507 9.33961 2.62819 8.78114 1.9908 7.93531C1.35342 7.08947 1.07759 6.02534 1.22382 4.97638Z" fill="#6D0000" fill-opacity="0.4"/>
</svg>
